<?xml version="1.0" encoding="UTF-8"?>
<svg id="Layer_1" data-name="Layer 1" xmlns="http://www.w3.org/2000/svg" viewBox="0 0 276.74 344.28">
  <defs>
    <style>
      .cls-1 {
        fill: #1b7fca;
      }

      .cls-2 {
        fill: #43c8d9;
      }

      .cls-2, .cls-3 {
        opacity: .7;
      }

      .cls-3 {
        fill: #80c8e3;
      }

      .cls-4 {
        fill: #337fa4;
      }
    </style>
  </defs>
  <path class="cls-4" d="M30.81,0h32.95c16.93,0,30.68,13.75,30.68,30.68v280.86c0,18.07-14.67,32.74-32.74,32.74h-30.77c-17.08,0-30.94-13.86-30.94-30.94V30.81C0,13.81,13.81,0,30.81,0Z" transform="translate(94.45 344.28) rotate(180)"/>
  <path class="cls-3" d="M93.05,224.12l-30.07-29.71c-10.18-9.44-10.77-25.34-1.34-35.51L197.97,11.91c9.44-10.18,25.34-10.77,35.51-1.34l30.47,28.26c10.18,9.44,10.77,25.34,1.34,35.51l-136.32,146.99c-9.44,10.18-25.74,12.22-35.92,2.79Z"/>
  <path class="cls-3" d="M238.13,333.13l31.25-31.25c9.81-9.81,9.81-25.72,0-35.54L129.3,126.27c-9.81-9.81-26.26-11.06-36.07-1.25l-30.71,32.49c-9.81,9.81-10.06,26.01-.24,35.82l140.32,139.79c9.81,9.81,25.72,9.81,35.54,0Z"/>
  <path class="cls-2" d="M94.53,123.71l-.15,101.62s17.8,12.42,34.59-4l45.94-49.28-43.99-43.73s-15.26-19.02-36.38-4.61"/>
  <path class="cls-1" d="M94.38,225.33l-26.25-25.95s-29.25-21.97-.6-47.02l27-28.65-.15,101.62Z"/>
  <path class="cls-2" d="M94.58,123.26l-.08,195.44s-3.44,21.59-22.87,24.73l-19.6.16-.88-157.58s-2.11-16.01,14.57-32.22c16.67-16.21,28.86-30.53,28.86-30.53Z"/>
</svg>